<?xml version="1.0" encoding="UTF-8"?>
<!DOCTYPE svg PUBLIC "-//W3C//DTD SVG 1.1//EN" "http://www.w3.org/Graphics/SVG/1.1/DTD/svg11.dtd">
<svg xmlns="http://www.w3.org/2000/svg" version="1.1" width="500px" height="500px" style="shape-rendering:geometricPrecision; text-rendering:geometricPrecision; image-rendering:optimizeQuality; fill-rule:evenodd; clip-rule:evenodd" xmlns:xlink="http://www.w3.org/1999/xlink">
<g><path style="opacity:1" fill="#2e2e2e" d="M -0.5,-0.5 C 166.167,-0.5 332.833,-0.5 499.5,-0.5C 499.5,166.167 499.5,332.833 499.5,499.5C 332.833,499.5 166.167,499.5 -0.5,499.5C -0.5,332.833 -0.5,166.167 -0.5,-0.5 Z"/></g>
<g><path style="opacity:1" fill="#a48965" d="M 230.5,85.5 C 233.287,84.5233 236.287,84.19 239.5,84.5C 245.069,86.0175 250.736,87.0175 256.5,87.5C 250.5,87.5 244.5,87.5 238.5,87.5C 236.365,85.631 233.698,84.9644 230.5,85.5 Z"/></g>
<g><path style="opacity:1" fill="#2f2f2e" d="M 238.5,87.5 C 244.5,87.5 250.5,87.5 256.5,87.5C 326.803,93.3205 375.636,128.654 403,193.5C 418.403,239.561 415.236,284.228 393.5,327.5C 392.206,326.71 391.039,325.71 390,324.5C 389.501,328.152 389.335,331.818 389.5,335.5C 348.221,396.288 290.888,421.455 217.5,411C 177.188,402.361 144.521,381.861 119.5,349.5C 120.043,349.44 120.376,349.107 120.5,348.5C 118.957,345.914 117.291,343.414 115.5,341C 120.743,336.255 120.743,331.588 115.5,327C 111.94,325.763 108.273,325.263 104.5,325.5C 83.679,282.728 80.8457,238.728 96,193.5C 118.555,138.62 158.721,104.12 216.5,90C 223.822,89.0013 231.156,88.168 238.5,87.5 Z"/></g>
<g><path style="opacity:1" fill="#d0ac7a" d="M 239.5,84.5 C 318.045,84.3377 373.212,120.004 405,191.5C 421.37,238.911 418.204,284.911 395.5,329.5C 394.5,329.167 393.833,328.5 393.5,327.5C 415.236,284.228 418.403,239.561 403,193.5C 375.636,128.654 326.803,93.3205 256.5,87.5C 250.736,87.0175 245.069,86.0175 239.5,84.5 Z"/></g>
<g><path style="opacity:1" fill="#e4daa3" d="M 256.5,121.5 C 257.167,121.833 257.833,122.167 258.5,122.5C 259.314,127.119 259.647,131.786 259.5,136.5C 258.5,136.5 257.5,136.5 256.5,136.5C 255.833,136.167 255.167,135.833 254.5,135.5C 253.897,130.381 254.564,125.715 256.5,121.5 Z"/></g>
<g><path style="opacity:1" fill="#c4ab6a" d="M 256.5,121.5 C 254.564,125.715 253.897,130.381 254.5,135.5C 250.728,137.934 246.728,139.934 242.5,141.5C 241.883,141.389 241.383,141.056 241,140.5C 240.501,136.514 240.334,132.514 240.5,128.5C 243.292,128.378 245.292,127.044 246.5,124.5C 248.1,123.356 249.767,122.189 251.5,121C 253.387,120.22 255.054,120.387 256.5,121.5 Z"/></g>
<g><path style="opacity:1" fill="#c3a871" d="M 258.5,122.5 C 264.77,125.779 270.77,129.445 276.5,133.5C 277.383,138.103 277.717,142.77 277.5,147.5C 276.167,147.5 274.833,147.5 273.5,147.5C 267.663,144.082 261.996,140.416 256.5,136.5C 257.5,136.5 258.5,136.5 259.5,136.5C 259.647,131.786 259.314,127.119 258.5,122.5 Z"/></g>
<g><path style="opacity:1" fill="#b29251" d="M 246.5,124.5 C 245.292,127.044 243.292,128.378 240.5,128.5C 240.334,132.514 240.501,136.514 241,140.5C 241.383,141.056 241.883,141.389 242.5,141.5C 240.025,144.241 237.025,146.241 233.5,147.5C 232.5,147.5 231.5,147.5 230.5,147.5C 230.283,142.77 230.617,138.103 231.5,133.5C 236.027,129.735 241.027,126.735 246.5,124.5 Z"/></g>
<g><path style="opacity:1" fill="#9f804c" d="M 276.5,133.5 C 278.537,134.846 280.537,136.18 282.5,137.5C 283.103,142.619 282.436,147.285 280.5,151.5C 277.996,150.416 275.663,149.083 273.5,147.5C 274.833,147.5 276.167,147.5 277.5,147.5C 277.717,142.77 277.383,138.103 276.5,133.5 Z"/></g>
<g><path style="opacity:1" fill="#a37d3b" d="M 231.5,133.5 C 230.617,138.103 230.283,142.77 230.5,147.5C 231.5,147.5 232.5,147.5 233.5,147.5C 227.23,150.639 221.23,154.306 215.5,158.5C 214.505,153.208 214.172,147.875 214.5,142.5C 218.031,141.769 221.031,140.103 223.5,137.5C 225.955,135.703 228.622,134.37 231.5,133.5 Z"/></g>
<g><path style="opacity:1" fill="#6f5a38" d="M 282.5,137.5 C 283.487,142.305 283.821,147.305 283.5,152.5C 282.209,152.737 281.209,152.404 280.5,151.5C 282.436,147.285 283.103,142.619 282.5,137.5 Z"/></g>
<g><path style="opacity:1" fill="#ded29c" d="M 252.5,142.5 C 252.917,141.876 253.584,141.543 254.5,141.5C 256.511,142.519 258.511,143.519 260.5,144.5C 262.593,149.31 262.927,154.31 261.5,159.5C 259.929,158.691 258.262,158.357 256.5,158.5C 256.5,157.833 256.167,157.5 255.5,157.5C 255.215,152.141 254.215,147.141 252.5,142.5 Z"/></g>
<g><path style="opacity:1" fill="#c2a867" d="M 252.5,142.5 C 254.215,147.141 255.215,152.141 255.5,157.5C 251.964,158.379 248.631,159.713 245.5,161.5C 244.2,159.777 243.533,157.61 243.5,155C 243.727,151.984 244.394,149.15 245.5,146.5C 247.336,144.412 249.669,143.079 252.5,142.5 Z"/></g>
<g><path style="opacity:1" fill="#c2ab75" d="M 260.5,144.5 C 265.871,148.179 271.204,151.846 276.5,155.5C 277.097,160.294 276.43,164.627 274.5,168.5C 268.327,165.344 262.327,162.011 256.5,158.5C 258.262,158.357 259.929,158.691 261.5,159.5C 262.927,154.31 262.593,149.31 260.5,144.5 Z"/></g>
<g><path style="opacity:1" fill="#b29557" d="M 245.5,146.5 C 244.394,149.15 243.727,151.984 243.5,155C 243.533,157.61 244.2,159.777 245.5,161.5C 243.488,162.524 241.822,164.024 240.5,166C 239.552,166.483 238.552,166.649 237.5,166.5C 236.5,166.5 235.5,166.5 234.5,166.5C 234.226,161.737 234.559,157.07 235.5,152.5C 238.198,149.483 241.531,147.483 245.5,146.5 Z"/></g>
<g><path style="opacity:1" fill="#a28142" d="M 235.5,152.5 C 234.559,157.07 234.226,161.737 234.5,166.5C 235.5,166.5 236.5,166.5 237.5,166.5C 234.791,168.509 231.791,170.175 228.5,171.5C 223.887,169.525 219.553,167.025 215.5,164C 221.732,159.385 228.399,155.552 235.5,152.5 Z"/></g>
<g><path style="opacity:1" fill="#a58651" d="M 276.5,155.5 C 278.483,156.471 280.483,157.471 282.5,158.5C 283.103,163.619 282.436,168.285 280.5,172.5C 278.118,171.649 276.118,170.316 274.5,168.5C 276.43,164.627 277.097,160.294 276.5,155.5 Z"/></g>
<g><path style="opacity:1" fill="#d0ac7a" d="M 230.5,85.5 C 233.698,84.9644 236.365,85.631 238.5,87.5C 231.156,88.168 223.822,89.0013 216.5,90C 158.721,104.12 118.555,138.62 96,193.5C 80.8457,238.728 83.679,282.728 104.5,325.5C 103.508,325.328 102.842,325.662 102.5,326.5C 83.47,289.746 78.6366,251.079 88,210.5C 105.333,151.168 143.166,111.335 201.5,91C 211.089,88.6336 220.756,86.8003 230.5,85.5 Z"/></g>
<g><path style="opacity:1" fill="#c3aa69" d="M 258.5,164.5 C 257.178,164.33 256.011,164.663 255,165.5C 254.232,169.92 254.398,174.253 255.5,178.5C 252.833,179.5 250.167,180.5 247.5,181.5C 246.353,177.354 246.186,173.02 247,168.5C 248.045,167.627 248.878,166.627 249.5,165.5C 252.323,162.315 255.323,161.981 258.5,164.5 Z"/></g>
<g><path style="opacity:1" fill="#6f5a39" d="M 282.5,158.5 C 283.815,163.68 283.815,169.014 282.5,174.5C 281.478,174.145 280.811,173.478 280.5,172.5C 282.436,168.285 283.103,163.619 282.5,158.5 Z"/></g>
<g><path style="opacity:1" fill="#a9894a" d="M 249.5,165.5 C 248.878,166.627 248.045,167.627 247,168.5C 246.186,173.02 246.353,177.354 247.5,181.5C 246.399,182.598 245.066,182.765 243.5,182C 240.167,179.667 236.833,177.333 233.5,175C 238.476,171.181 243.81,168.015 249.5,165.5 Z"/></g>
<g><path style="opacity:1" fill="#c2aa74" d="M 261.5,166.5 C 266.547,170.198 271.88,173.531 277.5,176.5C 278.265,179.096 278.599,181.763 278.5,184.5C 276.41,187.875 273.41,189.041 269.5,188C 265.261,184.91 260.928,182.077 256.5,179.5C 258.262,179.357 259.929,179.691 261.5,180.5C 262.72,175.817 262.72,171.15 261.5,166.5 Z"/></g>
<g><path style="opacity:1" fill="#ded29b" d="M 258.5,164.5 C 259.29,165.401 260.29,166.068 261.5,166.5C 262.72,171.15 262.72,175.817 261.5,180.5C 259.929,179.691 258.262,179.357 256.5,179.5C 256.5,178.833 256.167,178.5 255.5,178.5C 254.398,174.253 254.232,169.92 255,165.5C 256.011,164.663 257.178,164.33 258.5,164.5 Z"/></g>
<g><path style="opacity:1" fill="#dbcd97" d="M 214.5,169.5 C 216.816,170.806 219.15,172.139 221.5,173.5C 222.383,178.103 222.717,182.77 222.5,187.5C 221.167,187.5 219.833,187.5 218.5,187.5C 217.71,186.599 216.71,185.932 215.5,185.5C 214.6,180.228 214.267,174.895 214.5,169.5 Z"/></g>
<g><path style="opacity:1" fill="#c5ad77" d="M 221.5,173.5 C 225.528,175.845 229.528,178.178 233.5,180.5C 235.113,185.007 235.779,189.673 235.5,194.5C 233.435,194.483 231.435,194.15 229.5,193.5C 225.809,191.459 222.142,189.459 218.5,187.5C 219.833,187.5 221.167,187.5 222.5,187.5C 222.717,182.77 222.383,178.103 221.5,173.5 Z"/></g>
<g><path style="opacity:1" fill="#bfa564" d="M 214.5,169.5 C 214.267,174.895 214.6,180.228 215.5,185.5C 209.882,187.312 204.549,189.645 199.5,192.5C 198.353,188.354 198.186,184.02 199,179.5C 200.417,178.922 201.25,177.922 201.5,176.5C 205.352,173.405 209.685,171.072 214.5,169.5 Z"/></g>
<g><path style="opacity:1" fill="#947748" d="M 277.5,176.5 C 282.324,177.125 283.991,179.625 282.5,184C 281.207,184.49 279.873,184.657 278.5,184.5C 278.599,181.763 278.265,179.096 277.5,176.5 Z"/></g>
<g><path style="opacity:1" fill="#ac8c4c" d="M 201.5,176.5 C 201.25,177.922 200.417,178.922 199,179.5C 198.186,184.02 198.353,188.354 199.5,192.5C 197.064,195.78 193.731,197.78 189.5,198.5C 188.2,196.777 187.533,194.61 187.5,192C 187.555,189.413 187.889,186.913 188.5,184.5C 192.299,181.048 196.632,178.382 201.5,176.5 Z"/></g>
<g><path style="opacity:1" fill="#c1a665" d="M 254.5,185.5 C 254.182,190.032 254.515,194.366 255.5,198.5C 255.158,199.338 254.492,199.672 253.5,199.5C 252.2,197.777 251.533,195.61 251.5,193C 251.833,190.833 252.167,188.667 252.5,186.5C 253.183,186.137 253.85,185.804 254.5,185.5 Z"/></g>
<g><path style="opacity:1" fill="#a17c3c" d="M 188.5,184.5 C 187.889,186.913 187.555,189.413 187.5,192C 187.533,194.61 188.2,196.777 189.5,198.5C 184.815,201.6 179.981,204.6 175,207.5C 174.333,202.167 174.333,196.833 175,191.5C 179.161,188.503 183.661,186.17 188.5,184.5 Z"/></g>
<g><path style="opacity:1" fill="#9f7d41" d="M 256.5,184.5 C 255.508,184.328 254.842,184.662 254.5,185.5C 253.85,185.804 253.183,186.137 252.5,186.5C 252.167,188.667 251.833,190.833 251.5,193C 251.533,195.61 252.2,197.777 253.5,199.5C 251.813,200.918 249.98,202.251 248,203.5C 247.333,198.167 247.333,192.833 248,187.5C 249.918,186.458 251.751,185.292 253.5,184C 254.749,183.26 255.749,183.427 256.5,184.5 Z"/></g>
<g><path style="opacity:1" fill="#a68752" d="M 233.5,180.5 C 236.328,182.748 239.328,184.748 242.5,186.5C 243.103,191.619 242.436,196.285 240.5,200.5C 236.564,198.558 232.897,196.225 229.5,193.5C 231.435,194.15 233.435,194.483 235.5,194.5C 235.779,189.673 235.113,185.007 233.5,180.5 Z"/></g>
<g><path style="opacity:1" fill="#dccf98" d="M 256.5,184.5 C 256.833,185.5 257.5,186.167 258.5,186.5C 258.756,190.269 258.423,193.936 257.5,197.5C 257.158,198.338 256.492,198.672 255.5,198.5C 254.515,194.366 254.182,190.032 254.5,185.5C 254.842,184.662 255.508,184.328 256.5,184.5 Z"/></g>
<g><path style="opacity:1" fill="#c3ab75" d="M 258.5,186.5 C 261.149,188.14 263.816,189.807 266.5,191.5C 263.652,193.755 260.652,195.755 257.5,197.5C 258.423,193.936 258.756,190.269 258.5,186.5 Z"/></g>
<g><path style="opacity:1" fill="#dec890" d="M 284.5,189.5 C 286.784,189.975 288.784,190.975 290.5,192.5C 292.276,197.609 292.943,202.942 292.5,208.5C 291.167,208.5 289.833,208.5 288.5,208.5C 287.486,207.326 286.153,206.66 284.5,206.5C 283.238,200.703 283.238,195.037 284.5,189.5 Z"/></g>
<g><path style="opacity:1" fill="#5e4e36" d="M 242.5,186.5 C 243.815,191.68 243.815,197.014 242.5,202.5C 241.478,202.145 240.811,201.478 240.5,200.5C 242.436,196.285 243.103,191.619 242.5,186.5 Z"/></g>
<g><path style="opacity:1" fill="#c3a969" d="M 284.5,189.5 C 283.238,195.037 283.238,200.703 284.5,206.5C 276.475,209.345 268.808,213.012 261.5,217.5C 260.06,216.054 259.393,214.221 259.5,212C 260.163,208.527 260.496,205.027 260.5,201.5C 267.271,197.609 273.937,193.442 280.5,189C 282.066,188.235 283.399,188.402 284.5,189.5 Z"/></g>
<g><path style="opacity:1" fill="#c1a767" d="M 216.5,191.5 C 215.195,193.397 214.529,195.731 214.5,198.5C 214.551,201.253 214.884,203.92 215.5,206.5C 210.463,208.515 205.463,210.849 200.5,213.5C 199.213,212.129 198.547,210.295 198.5,208C 198.078,203.7 199.412,200.2 202.5,197.5C 205.433,195.355 208.433,193.188 211.5,191C 213.387,190.22 215.054,190.387 216.5,191.5 Z"/></g>
<g><path style="opacity:1" fill="#e4d9a3" d="M 216.5,191.5 C 217.833,192.5 219.167,193.5 220.5,194.5C 221.097,199.294 220.43,203.627 218.5,207.5C 217.391,207.443 216.391,207.11 215.5,206.5C 214.884,203.92 214.551,201.253 214.5,198.5C 214.529,195.731 215.195,193.397 216.5,191.5 Z"/></g>
<g><path style="opacity:1" fill="#c3ac76" d="M 220.5,194.5 C 227.528,198.016 234.195,202.183 240.5,207C 237.194,210.306 233.36,212.806 229,214.5C 225.021,212.769 221.521,210.436 218.5,207.5C 220.43,203.627 221.097,199.294 220.5,194.5 Z"/></g>
<g><path style="opacity:1" fill="#b29150" d="M 202.5,197.5 C 199.412,200.2 198.078,203.7 198.5,208C 198.547,210.295 199.213,212.129 200.5,213.5C 197.696,215.405 194.696,217.071 191.5,218.5C 190.178,218.67 189.011,218.337 188,217.5C 188.077,218.738 187.911,219.738 187.5,220.5C 186.225,215.784 186.225,211.117 187.5,206.5C 191.708,202.315 196.708,199.315 202.5,197.5 Z"/></g>
<g><path style="opacity:1" fill="#c3a871" d="M 290.5,192.5 C 298.513,197.505 306.513,202.505 314.5,207.5C 314.827,212.544 314.494,217.544 313.5,222.5C 312.583,221.873 311.583,221.539 310.5,221.5C 302.834,217.669 295.5,213.336 288.5,208.5C 289.833,208.5 291.167,208.5 292.5,208.5C 292.943,202.942 292.276,197.609 290.5,192.5 Z"/></g>
<g><path style="opacity:1" fill="#b39353" d="M 260.5,201.5 C 260.496,205.027 260.163,208.527 259.5,212C 259.393,214.221 260.06,216.054 261.5,217.5C 255.666,221.921 249.332,225.588 242.5,228.5C 241.504,228.586 240.671,228.252 240,227.5C 239.092,222.311 239.592,217.311 241.5,212.5C 247.63,208.598 253.963,204.931 260.5,201.5 Z"/></g>
<g><path style="opacity:1" fill="#a07a39" d="M 187.5,206.5 C 186.225,211.117 186.225,215.784 187.5,220.5C 187.911,219.738 188.077,218.738 188,217.5C 189.011,218.337 190.178,218.67 191.5,218.5C 186.706,222.069 181.706,225.403 176.5,228.5C 174.558,223.944 173.892,218.944 174.5,213.5C 178.557,210.806 182.89,208.473 187.5,206.5 Z"/></g>
<g><path style="opacity:1" fill="#e4ce96" d="M 284.5,212.5 C 286.216,214.025 288.216,215.025 290.5,215.5C 290.5,220.5 290.5,225.5 290.5,230.5C 288.784,230.371 287.117,230.038 285.5,229.5C 285.167,229.5 284.833,229.5 284.5,229.5C 283.196,223.734 283.196,218.067 284.5,212.5 Z"/></g>
<g><path style="opacity:1" fill="#c5ae71" d="M 208.5,230.5 C 207.5,230.5 206.5,230.5 205.5,230.5C 205.283,225.77 205.617,221.103 206.5,216.5C 208.804,214.343 211.471,212.676 214.5,211.5C 217.448,213.113 220.115,215.113 222.5,217.5C 218.795,220.526 214.795,223.192 210.5,225.5C 209.83,227.291 209.163,228.958 208.5,230.5 Z"/></g>
<g><path style="opacity:1" fill="#c4aa68" d="M 284.5,212.5 C 283.196,218.067 283.196,223.734 284.5,229.5C 280.418,230.376 276.751,232.043 273.5,234.5C 271.565,235.15 269.565,235.483 267.5,235.5C 267.112,230.372 267.612,225.372 269,220.5C 269.333,221.167 269.667,221.833 270,222.5C 271.14,220.721 272.307,219.054 273.5,217.5C 276.274,215.936 278.941,214.103 281.5,212C 282.749,211.26 283.749,211.427 284.5,212.5 Z"/></g>
<g><path style="opacity:1" fill="#52442f" d="M 174.5,213.5 C 173.892,218.944 174.558,223.944 176.5,228.5C 175.791,229.404 174.791,229.737 173.5,229.5C 173.179,223.974 173.512,218.64 174.5,213.5 Z"/></g>
<g><path style="opacity:1" fill="#9a7b48" d="M 314.5,207.5 C 316.483,208.471 318.483,209.471 320.5,210.5C 321.113,216.271 320.446,221.604 318.5,226.5C 315.787,224.828 313.12,223.162 310.5,221.5C 311.583,221.539 312.583,221.873 313.5,222.5C 314.494,217.544 314.827,212.544 314.5,207.5 Z"/></g>
<g><path style="opacity:1" fill="#a17b3b" d="M 241.5,212.5 C 239.592,217.311 239.092,222.311 240,227.5C 240.671,228.252 241.504,228.586 242.5,228.5C 242.631,229.376 242.298,230.043 241.5,230.5C 232.278,234.943 223.278,239.609 214.5,244.5C 214.334,239.156 214.501,233.823 215,228.5C 223.716,222.945 232.55,217.612 241.5,212.5 Z"/></g>
<g><path style="opacity:1" fill="#5a4b35" d="M 320.5,210.5 C 321.489,215.975 321.822,221.642 321.5,227.5C 320.209,227.737 319.209,227.404 318.5,226.5C 320.446,221.604 321.113,216.271 320.5,210.5 Z"/></g>
<g><path style="opacity:1" fill="#c5ad78" d="M 290.5,215.5 C 296.701,219.764 303.034,223.764 309.5,227.5C 311.264,232.639 311.931,237.972 311.5,243.5C 309.784,243.371 308.117,243.038 306.5,242.5C 301.395,240.113 296.395,237.446 291.5,234.5C 289.429,232.815 287.429,231.148 285.5,229.5C 287.117,230.038 288.784,230.371 290.5,230.5C 290.5,225.5 290.5,220.5 290.5,215.5 Z"/></g>
<g><path style="opacity:1" fill="#b69756" d="M 206.5,216.5 C 205.617,221.103 205.283,225.77 205.5,230.5C 206.5,230.5 207.5,230.5 208.5,230.5C 203.302,233.262 198.302,236.262 193.5,239.5C 192.5,239.5 191.5,239.5 190.5,239.5C 190.334,235.486 190.501,231.486 191,227.5C 192.816,226.076 194.316,224.41 195.5,222.5C 198.999,220.25 202.665,218.25 206.5,216.5 Z"/></g>
<g><path style="opacity:1" fill="#b29352" d="M 273.5,217.5 C 272.307,219.054 271.14,220.721 270,222.5C 269.667,221.833 269.333,221.167 269,220.5C 267.612,225.372 267.112,230.372 267.5,235.5C 269.565,235.483 271.565,235.15 273.5,234.5C 267.722,238.559 261.389,241.893 254.5,244.5C 253.298,239.311 253.298,233.977 254.5,228.5C 260.592,224.406 266.925,220.74 273.5,217.5 Z"/></g>
<g><path style="opacity:1" fill="#a27e3e" d="M 195.5,222.5 C 194.316,224.41 192.816,226.076 191,227.5C 190.501,231.486 190.334,235.486 190.5,239.5C 191.5,239.5 192.5,239.5 193.5,239.5C 188.071,242.647 182.738,245.981 177.5,249.5C 176.5,249.5 175.5,249.5 174.5,249.5C 174.5,244.5 174.5,239.5 174.5,234.5C 181.69,230.741 188.69,226.741 195.5,222.5 Z"/></g>
<g><path style="opacity:1" fill="#ae905a" d="M 309.5,227.5 C 312.39,228.798 315.057,230.465 317.5,232.5C 317.5,237.5 317.5,242.5 317.5,247.5C 316.5,247.5 315.5,247.5 314.5,247.5C 311.46,246.32 308.794,244.653 306.5,242.5C 308.117,243.038 309.784,243.371 311.5,243.5C 311.931,237.972 311.264,232.639 309.5,227.5 Z"/></g>
<g><path style="opacity:1" fill="#9f7a3a" d="M 254.5,228.5 C 253.298,233.977 253.298,239.311 254.5,244.5C 252.882,245.451 251.549,246.784 250.5,248.5C 244.707,251.23 239.04,254.23 233.5,257.5C 232.167,251.833 232.167,246.167 233.5,240.5C 240.534,236.444 247.534,232.444 254.5,228.5 Z"/></g>
<g><path style="opacity:1" fill="#c6ae6d" d="M 285.5,236.5 C 283.564,240.715 282.897,245.381 283.5,250.5C 281.668,251.248 280.001,252.248 278.5,253.5C 276.876,253.64 275.71,252.973 275,251.5C 275.367,247.362 275.533,243.362 275.5,239.5C 278.471,236.649 281.804,235.649 285.5,236.5 Z"/></g>
<g><path style="opacity:1" fill="#e3cd94" d="M 285.5,236.5 C 286.167,236.833 286.833,237.167 287.5,237.5C 287.75,238.922 288.583,239.922 290,240.5C 290.499,244.486 290.666,248.486 290.5,252.5C 288.784,252.371 287.117,252.038 285.5,251.5C 284.833,251.167 284.167,250.833 283.5,250.5C 282.897,245.381 283.564,240.715 285.5,236.5 Z"/></g>
<g><path style="opacity:1" fill="#51432f" d="M 174.5,234.5 C 174.5,239.5 174.5,244.5 174.5,249.5C 175.5,249.5 176.5,249.5 177.5,249.5C 176.432,250.434 175.099,250.768 173.5,250.5C 173.179,244.974 173.512,239.64 174.5,234.5 Z"/></g>
<g><path style="opacity:1" fill="#c0a565" d="M 208.5,236.5 C 209.487,241.305 209.821,246.305 209.5,251.5C 206.45,253.692 203.117,255.358 199.5,256.5C 198.778,256.082 198.278,255.416 198,254.5C 197.823,250.644 197.323,246.977 196.5,243.5C 200.136,240.677 204.136,238.344 208.5,236.5 Z"/></g>
<g><path style="opacity:1" fill="#7a6f4f" d="M 208.5,236.5 C 208.56,235.957 208.893,235.624 209.5,235.5C 210.815,240.986 210.815,246.32 209.5,251.5C 209.821,246.305 209.487,241.305 208.5,236.5 Z"/></g>
<g><path style="opacity:1" fill="#947643" d="M 317.5,232.5 C 318.391,233.11 319.391,233.443 320.5,233.5C 320.822,239.358 320.489,245.025 319.5,250.5C 317.632,249.737 315.965,248.737 314.5,247.5C 315.5,247.5 316.5,247.5 317.5,247.5C 317.5,242.5 317.5,237.5 317.5,232.5 Z"/></g>
<g><path style="opacity:1" fill="#5c4d34" d="M 320.5,233.5 C 321.817,239.346 321.817,245.346 320.5,251.5C 319.893,251.376 319.56,251.043 319.5,250.5C 320.489,245.025 320.822,239.358 320.5,233.5 Z"/></g>
<g><path style="opacity:1" fill="#c6ac75" d="M 287.5,237.5 C 295.204,242.171 302.87,246.838 310.5,251.5C 312.593,256.31 312.927,261.31 311.5,266.5C 310.583,265.873 309.583,265.539 308.5,265.5C 300.33,261.585 292.664,256.919 285.5,251.5C 287.117,252.038 288.784,252.371 290.5,252.5C 290.666,248.486 290.499,244.486 290,240.5C 288.583,239.922 287.75,238.922 287.5,237.5 Z"/></g>
<g><path style="opacity:1" fill="#b2914f" d="M 196.5,243.5 C 197.323,246.977 197.823,250.644 198,254.5C 198.278,255.416 198.778,256.082 199.5,256.5C 196.338,258.678 193.005,260.678 189.5,262.5C 188.5,262.5 187.5,262.5 186.5,262.5C 186.176,258.445 186.509,254.445 187.5,250.5C 188.251,251.376 188.751,252.376 189,253.5C 189.003,250.251 190.17,247.584 192.5,245.5C 193.514,244.326 194.847,243.66 196.5,243.5 Z"/></g>
<g><path style="opacity:1" fill="#b49554" d="M 275.5,239.5 C 275.533,243.362 275.367,247.362 275,251.5C 275.71,252.973 276.876,253.64 278.5,253.5C 270.687,258.911 262.353,263.578 253.5,267.5C 252.2,265.777 251.533,263.61 251.5,261C 251.833,258.833 252.167,256.667 252.5,254.5C 253.086,254.709 253.586,255.043 254,255.5C 254.41,254.099 254.91,252.766 255.5,251.5C 262.159,247.503 268.825,243.503 275.5,239.5 Z"/></g>
<g><path style="opacity:1" fill="#a07b3b" d="M 192.5,245.5 C 190.17,247.584 189.003,250.251 189,253.5C 188.751,252.376 188.251,251.376 187.5,250.5C 186.509,254.445 186.176,258.445 186.5,262.5C 187.5,262.5 188.5,262.5 189.5,262.5C 185.138,265.859 180.471,268.859 175.5,271.5C 174.337,266.198 174.171,260.864 175,255.5C 180.996,252.311 186.83,248.978 192.5,245.5 Z"/></g>
<g><path style="opacity:1" fill="#756b4e" d="M 225.5,246.5 C 226.209,245.596 227.209,245.263 228.5,245.5C 228.821,251.026 228.488,256.36 227.5,261.5C 228.108,256.056 227.442,251.056 225.5,246.5 Z"/></g>
<g><path style="opacity:1" fill="#c0a665" d="M 225.5,246.5 C 227.442,251.056 228.108,256.056 227.5,261.5C 222.143,265.065 216.477,268.065 210.5,270.5C 210.264,267.962 209.93,265.129 209.5,262C 209.338,259.498 210.005,257.331 211.5,255.5C 216.167,252.5 220.833,249.5 225.5,246.5 Z"/></g>
<g><path style="opacity:1" fill="#a3844f" d="M 310.5,251.5 C 314.142,253.477 317.475,255.811 320.5,258.5C 320.819,263.363 320.486,268.03 319.5,272.5C 315.522,270.496 311.856,268.163 308.5,265.5C 309.583,265.539 310.583,265.873 311.5,266.5C 312.927,261.31 312.593,256.31 310.5,251.5 Z"/></g>
<g><path style="opacity:1" fill="#a17c3b" d="M 255.5,251.5 C 254.91,252.766 254.41,254.099 254,255.5C 253.586,255.043 253.086,254.709 252.5,254.5C 252.167,256.667 251.833,258.833 251.5,261C 251.533,263.61 252.2,265.777 253.5,267.5C 247.335,271.75 241.002,275.75 234.5,279.5C 233.198,274.266 233.198,268.933 234.5,263.5C 241.475,259.541 248.475,255.541 255.5,251.5 Z"/></g>
<g><path style="opacity:1" fill="#635135" d="M 320.5,258.5 C 321.814,263.348 321.814,268.348 320.5,273.5C 319.893,273.376 319.56,273.043 319.5,272.5C 320.486,268.03 320.819,263.363 320.5,258.5 Z"/></g>
<g><path style="opacity:1" fill="#b1904f" d="M 211.5,255.5 C 210.005,257.331 209.338,259.498 209.5,262C 209.93,265.129 210.264,267.962 210.5,270.5C 205.881,274.818 200.548,278.152 194.5,280.5C 192.114,275.769 192.114,270.769 194.5,265.5C 199.994,261.918 205.661,258.585 211.5,255.5 Z"/></g>
<g><path style="opacity:1" fill="#c1a666" d="M 286.5,258.5 C 284.564,262.715 283.897,267.381 284.5,272.5C 278.232,274.967 272.232,277.967 266.5,281.5C 265.005,281.585 264.005,280.919 263.5,279.5C 264.681,277.197 264.681,274.863 263.5,272.5C 263.902,270.7 264.569,269.033 265.5,267.5C 270.908,262.707 277.075,259.04 284,256.5C 285.301,256.639 286.134,257.305 286.5,258.5 Z"/></g>
<g><path style="opacity:1" fill="#d5c08a" d="M 286.5,258.5 C 290.1,260.11 293.434,262.11 296.5,264.5C 296.5,268.833 296.5,273.167 296.5,277.5C 294.784,277.371 293.117,277.038 291.5,276.5C 289.004,275.42 286.67,274.086 284.5,272.5C 283.897,267.381 284.564,262.715 286.5,258.5 Z"/></g>
<g><path style="opacity:1" fill="#c2a771" d="M 296.5,264.5 C 301.406,267.687 306.406,270.687 311.5,273.5C 312.383,278.103 312.717,282.77 312.5,287.5C 311.167,287.5 309.833,287.5 308.5,287.5C 302.63,284.07 296.963,280.403 291.5,276.5C 293.117,277.038 294.784,277.371 296.5,277.5C 296.5,273.167 296.5,268.833 296.5,264.5 Z"/></g>
<g><path style="opacity:1" fill="#66502e" d="M 234.5,263.5 C 233.198,268.933 233.198,274.266 234.5,279.5C 234.44,280.043 234.107,280.376 233.5,280.5C 233.167,277.667 232.833,274.833 232.5,272C 232.519,268.748 233.186,265.915 234.5,263.5 Z"/></g>
<g><path style="opacity:1" fill="#b1904f" d="M 265.5,267.5 C 264.569,269.033 263.902,270.7 263.5,272.5C 264.681,274.863 264.681,277.197 263.5,279.5C 264.005,280.919 265.005,281.585 266.5,281.5C 262.737,283.648 259.07,285.981 255.5,288.5C 254.167,288.5 252.833,288.5 251.5,288.5C 250.962,283.533 251.629,278.866 253.5,274.5C 256.835,271.161 260.835,268.828 265.5,267.5 Z"/></g>
<g><path style="opacity:1" fill="#bca365" d="M 212.5,290.5 C 211.624,290.631 210.957,290.298 210.5,289.5C 211.439,285.235 211.772,280.902 211.5,276.5C 215.768,273.691 220.102,270.857 224.5,268C 225.793,267.51 227.127,267.343 228.5,267.5C 228.5,272.5 228.5,277.5 228.5,282.5C 223.519,285.657 218.186,288.324 212.5,290.5 Z"/></g>
<g><path style="opacity:1" fill="#9c7536" d="M 194.5,265.5 C 192.114,270.769 192.114,275.769 194.5,280.5C 188.4,284.725 182.067,288.725 175.5,292.5C 174.167,287.167 174.167,281.833 175.5,276.5C 182.052,273.062 188.385,269.396 194.5,265.5 Z"/></g>
<g><path style="opacity:1" fill="#ae8e4f" d="M 211.5,276.5 C 211.772,280.902 211.439,285.235 210.5,289.5C 210.957,290.298 211.624,290.631 212.5,290.5C 211.71,291.794 210.71,292.961 209.5,294C 202.356,297.661 195.356,301.494 188.5,305.5C 186.564,301.285 185.897,296.619 186.5,291.5C 188.179,291.715 189.179,291.048 189.5,289.5C 196.825,285.17 204.159,280.837 211.5,276.5 Z"/></g>
<g><path style="opacity:1" fill="#a4844f" d="M 311.5,273.5 C 313.67,275.086 316.004,276.42 318.5,277.5C 320.065,280.19 320.731,283.19 320.5,286.5C 320.471,289.269 319.805,291.603 318.5,293.5C 315.386,291.035 312.053,289.035 308.5,287.5C 309.833,287.5 311.167,287.5 312.5,287.5C 312.717,282.77 312.383,278.103 311.5,273.5 Z"/></g>
<g><path style="opacity:1" fill="#635136" d="M 318.5,277.5 C 319.496,277.414 320.329,277.748 321,278.5C 321.83,284.196 321.663,289.863 320.5,295.5C 319.478,295.145 318.811,294.478 318.5,293.5C 319.805,291.603 320.471,289.269 320.5,286.5C 320.731,283.19 320.065,280.19 318.5,277.5 Z"/></g>
<g><path style="opacity:1" fill="#9d7736" d="M 253.5,274.5 C 251.629,278.866 250.962,283.533 251.5,288.5C 252.833,288.5 254.167,288.5 255.5,288.5C 248.909,292.469 242.242,296.469 235.5,300.5C 233.558,295.944 232.892,290.944 233.5,285.5C 239.87,281.315 246.536,277.648 253.5,274.5 Z"/></g>
<g><path style="opacity:1" fill="#9c7535" d="M 189.5,289.5 C 189.179,291.048 188.179,291.715 186.5,291.5C 185.897,296.619 186.564,301.285 188.5,305.5C 184.206,308.105 179.873,310.772 175.5,313.5C 174.167,308.167 174.167,302.833 175.5,297.5C 180.221,294.81 184.888,292.143 189.5,289.5 Z"/></g>
<g><path style="opacity:1" fill="#68512f" d="M 233.5,285.5 C 232.892,290.944 233.558,295.944 235.5,300.5C 234.791,301.404 233.791,301.737 232.5,301.5C 232.179,295.974 232.512,290.64 233.5,285.5 Z"/></g>
<g><path style="opacity:1" fill="#dadada" d="M 370.5,320.5 C 375.172,320.861 375.005,322.195 370,324.5C 369.5,324.167 369,323.833 368.5,323.5C 369.193,322.482 369.859,321.482 370.5,320.5 Z"/></g>
<g><path style="opacity:1" fill="#888888" d="M 143.5,326.5 C 142.508,333.982 142.175,341.648 142.5,349.5C 141.18,341.657 141.18,333.657 142.5,325.5C 143.107,325.624 143.44,325.957 143.5,326.5 Z"/></g>
<g><path style="opacity:1" fill="#8f8f8f" d="M 89.5,326.5 C 86.1667,326.5 82.8333,326.5 79.5,326.5C 79.5,334.167 79.5,341.833 79.5,349.5C 78.5076,341.684 78.1743,333.684 78.5,325.5C 82.3714,325.185 86.0381,325.518 89.5,326.5 Z"/></g>
<g><path style="opacity:1" fill="#e0e0e0" d="M 89.5,326.5 C 95.4891,328.663 96.9891,332.663 94,338.5C 92.871,340.141 91.371,341.141 89.5,341.5C 87.5,341.5 85.5,341.5 83.5,341.5C 83.5,344.167 83.5,346.833 83.5,349.5C 82.1667,349.5 80.8333,349.5 79.5,349.5C 79.5,341.833 79.5,334.167 79.5,326.5C 82.8333,326.5 86.1667,326.5 89.5,326.5 Z"/></g>
<g><path style="opacity:1" fill="#d9d9d9" d="M 104.5,325.5 C 108.273,325.263 111.94,325.763 115.5,327C 120.743,331.588 120.743,336.255 115.5,341C 117.291,343.414 118.957,345.914 120.5,348.5C 120.376,349.107 120.043,349.44 119.5,349.5C 118.5,349.5 117.5,349.5 116.5,349.5C 114.376,347.941 112.709,345.941 111.5,343.5C 110.311,342.571 108.978,342.238 107.5,342.5C 107.5,344.833 107.5,347.167 107.5,349.5C 105.833,349.5 104.167,349.5 102.5,349.5C 102.5,341.833 102.5,334.167 102.5,326.5C 102.842,325.662 103.508,325.328 104.5,325.5 Z"/></g>
<g><path style="opacity:1" fill="#7e7e7e" d="M 132.5,349.5 C 132.5,341.833 132.5,334.167 132.5,326.5C 131.167,326.5 129.833,326.5 128.5,326.5C 128.5,334.167 128.5,341.833 128.5,349.5C 127.508,341.684 127.174,333.684 127.5,325.5C 129.5,325.5 131.5,325.5 133.5,325.5C 133.826,333.684 133.492,341.684 132.5,349.5 Z"/></g>
<g><path style="opacity:1" fill="#e3e4e3" d="M 132.5,349.5 C 131.167,349.5 129.833,349.5 128.5,349.5C 128.5,341.833 128.5,334.167 128.5,326.5C 129.833,326.5 131.167,326.5 132.5,326.5C 132.5,334.167 132.5,341.833 132.5,349.5 Z"/></g>
<g><path style="opacity:1" fill="#afafaf" d="M 191.5,330.5 C 191.5,329.167 191.5,327.833 191.5,326.5C 186.5,326.5 181.5,326.5 176.5,326.5C 176.5,334.167 176.5,341.833 176.5,349.5C 175.508,341.684 175.174,333.684 175.5,325.5C 181.167,325.5 186.833,325.5 192.5,325.5C 192.784,327.415 192.451,329.081 191.5,330.5 Z"/></g>
<g><path style="opacity:1" fill="#dedede" d="M 191.5,330.5 C 187.833,330.5 184.167,330.5 180.5,330.5C 180.5,332.167 180.5,333.833 180.5,335.5C 183.833,335.5 187.167,335.5 190.5,335.5C 190.5,336.833 190.5,338.167 190.5,339.5C 187.167,339.5 183.833,339.5 180.5,339.5C 180.5,341.167 180.5,342.833 180.5,344.5C 184.5,344.5 188.5,344.5 192.5,344.5C 192.5,346.167 192.5,347.833 192.5,349.5C 187.167,349.5 181.833,349.5 176.5,349.5C 176.5,341.833 176.5,334.167 176.5,326.5C 181.5,326.5 186.5,326.5 191.5,326.5C 191.5,327.833 191.5,329.167 191.5,330.5 Z"/></g>
<g><path style="opacity:1" fill="#d9d9d9" d="M 200.5,325.5 C 203.85,325.335 207.183,325.502 210.5,326C 212.848,326.346 214.681,327.513 216,329.5C 217.262,333.909 216.428,337.743 213.5,341C 215.417,343.498 217.084,346.165 218.5,349C 216.421,349.808 214.421,349.641 212.5,348.5C 211.345,345.005 209.012,343.005 205.5,342.5C 205.5,344.833 205.5,347.167 205.5,349.5C 203.833,349.5 202.167,349.5 200.5,349.5C 200.5,341.5 200.5,333.5 200.5,325.5 Z"/></g>
<g><path style="opacity:1" fill="#d9d9d9" d="M 233.5,325.5 C 237.717,332.771 241.384,340.437 244.5,348.5C 240.945,350.324 238.611,349.324 237.5,345.5C 234.833,344.167 232.167,344.167 229.5,345.5C 228.754,346.736 228.421,348.07 228.5,349.5C 226.712,349.785 225.045,349.452 223.5,348.5C 226.573,340.691 229.906,333.024 233.5,325.5 Z"/></g>
<g><path style="opacity:1" fill="#d8d8d8" d="M 271.5,325.5 C 283.87,324.7 289.036,330.367 287,342.5C 283.235,348.76 277.735,350.927 270.5,349C 260.924,340.766 261.257,332.932 271.5,325.5 Z"/></g>
<g><path style="opacity:1" fill="#dcdcdc" d="M 305.5,326.5 C 310.908,327.637 313.075,330.97 312,336.5C 309.647,341.26 305.814,343.26 300.5,342.5C 300.5,344.833 300.5,347.167 300.5,349.5C 299.167,349.5 297.833,349.5 296.5,349.5C 296.5,341.833 296.5,334.167 296.5,326.5C 299.5,326.5 302.5,326.5 305.5,326.5 Z"/></g>
<g><path style="opacity:1" fill="#dbdbdb" d="M 325.5,325.5 C 327.857,325.337 330.19,325.503 332.5,326C 336.754,326.662 337.42,328.495 334.5,331.5C 324.991,329.346 321.658,333.013 324.5,342.5C 327.685,346.036 331.185,346.37 335,343.5C 337.148,345.572 336.982,347.406 334.5,349C 322.223,350.387 317.057,344.887 319,332.5C 320.694,329.642 322.861,327.309 325.5,325.5 Z"/></g>
<g><path style="opacity:1" fill="#7e7e7e" d="M 349.5,349.5 C 349.5,341.833 349.5,334.167 349.5,326.5C 348.167,326.5 346.833,326.5 345.5,326.5C 345.5,334.167 345.5,341.833 345.5,349.5C 344.508,341.684 344.174,333.684 344.5,325.5C 346.5,325.5 348.5,325.5 350.5,325.5C 350.826,333.684 350.492,341.684 349.5,349.5 Z"/></g>
<g><path style="opacity:1" fill="#e3e4e3" d="M 349.5,349.5 C 348.167,349.5 346.833,349.5 345.5,349.5C 345.5,341.833 345.5,334.167 345.5,326.5C 346.833,326.5 348.167,326.5 349.5,326.5C 349.5,334.167 349.5,341.833 349.5,349.5 Z"/></g>
<g><path style="opacity:1" fill="#d8d8d8" d="M 365.5,325.5 C 377.87,324.7 383.036,330.367 381,342.5C 377.235,348.76 371.735,350.927 364.5,349C 354.924,340.766 355.257,332.932 365.5,325.5 Z"/></g>
<g><path style="opacity:1" fill="#dcdcdb" d="M 393.5,327.5 C 393.833,328.5 394.5,329.167 395.5,329.5C 399.104,332.602 402.604,335.935 406,339.5C 406.499,335.179 406.666,330.846 406.5,326.5C 407.833,326.5 409.167,326.5 410.5,326.5C 410.5,334.167 410.5,341.833 410.5,349.5C 405.206,345.378 400.04,341.044 395,336.5C 394.501,340.821 394.334,345.154 394.5,349.5C 392.833,349.5 391.167,349.5 389.5,349.5C 389.5,346.5 389.5,343.5 389.5,340.5C 389.5,338.833 389.5,337.167 389.5,335.5C 389.335,331.818 389.501,328.152 390,324.5C 391.039,325.71 392.206,326.71 393.5,327.5 Z"/></g>
<g><path style="opacity:1" fill="#aaaaaa" d="M 406.5,326.5 C 407.919,325.549 409.585,325.216 411.5,325.5C 411.832,334.255 411.499,342.255 410.5,349.5C 410.5,341.833 410.5,334.167 410.5,326.5C 409.167,326.5 407.833,326.5 406.5,326.5 Z"/></g>
<g><path style="opacity:1" fill="#dddddd" d="M 142.5,349.5 C 142.175,341.648 142.508,333.982 143.5,326.5C 146.78,331.62 150.28,336.62 154,341.5C 158,336.167 162,330.833 166,325.5C 166.5,333.493 166.666,341.493 166.5,349.5C 164.833,349.5 163.167,349.5 161.5,349.5C 161.665,346.15 161.498,342.817 161,339.5C 158.908,342.681 156.575,345.681 154,348.5C 151.425,345.681 149.092,342.681 147,339.5C 146.502,342.817 146.335,346.15 146.5,349.5C 145.167,349.5 143.833,349.5 142.5,349.5 Z"/></g>
<g><path style="opacity:1" fill="#b1b1b1" d="M 305.5,326.5 C 302.5,326.5 299.5,326.5 296.5,326.5C 296.5,334.167 296.5,341.833 296.5,349.5C 295.508,341.684 295.174,333.684 295.5,325.5C 299.042,325.187 302.375,325.521 305.5,326.5 Z"/></g>
<g><path style="opacity:1" fill="#363636" d="M 83.5,330.5 C 90.1904,329.331 91.8571,331.497 88.5,337C 86.8659,337.494 85.1992,337.66 83.5,337.5C 83.5,335.167 83.5,332.833 83.5,330.5 Z"/></g>
<g><path style="opacity:1" fill="#3a3937" d="M 110.5,337.5 C 110.25,335.326 109.25,333.659 107.5,332.5C 107.97,331.307 108.97,330.64 110.5,330.5C 115.825,332.813 115.825,335.146 110.5,337.5 Z"/></g>
<g><path style="opacity:1" fill="#303030" d="M 205.5,330.5 C 211.158,329.679 212.825,331.846 210.5,337C 208.866,337.494 207.199,337.66 205.5,337.5C 205.5,335.167 205.5,332.833 205.5,330.5 Z"/></g>
<g><path style="opacity:1" fill="#333333" d="M 272.5,330.5 C 280.829,329.664 283.995,333.33 282,341.5C 278.385,346.423 274.385,346.756 270,342.5C 267.455,337.723 268.288,333.723 272.5,330.5 Z"/></g>
<g><path style="opacity:1" fill="#343434" d="M 300.5,330.5 C 303.881,329.888 306.214,331.054 307.5,334C 306.219,337.044 303.885,338.21 300.5,337.5C 300.5,335.167 300.5,332.833 300.5,330.5 Z"/></g>
<g><path style="opacity:1" fill="#333333" d="M 366.5,330.5 C 374.829,329.664 377.995,333.33 376,341.5C 372.385,346.423 368.385,346.756 364,342.5C 361.455,337.723 362.288,333.723 366.5,330.5 Z"/></g>
<g><path style="opacity:1" fill="#d2ad7c" d="M 107.5,332.5 C 109.25,333.659 110.25,335.326 110.5,337.5C 109.5,337.5 108.5,337.5 107.5,337.5C 107.5,335.833 107.5,334.167 107.5,332.5 Z"/></g>
<g><path style="opacity:1" fill="#434343" d="M 233.5,335.5 C 234.339,336.641 235.006,337.974 235.5,339.5C 234.277,340.614 232.944,340.781 231.5,340C 232.267,338.53 232.933,337.03 233.5,335.5 Z"/></g>
<g><path style="opacity:1" fill="#6f6f6f" d="M 89.5,341.5 C 88.0813,342.451 86.4147,342.784 84.5,342.5C 84.8016,345.059 84.4682,347.393 83.5,349.5C 83.5,346.833 83.5,344.167 83.5,341.5C 85.5,341.5 87.5,341.5 89.5,341.5 Z"/></g>
<g><path style="opacity:1" fill="#c9c9c9" d="M 419.5,344.5 C 421.252,344.418 422.252,345.251 422.5,347C 421.125,350.069 419.459,350.236 417.5,347.5C 418.193,346.482 418.859,345.482 419.5,344.5 Z"/></g>
<g><path style="opacity:1" fill="#d0ab7a" d="M 389.5,335.5 C 389.5,337.167 389.5,338.833 389.5,340.5C 344.005,403.399 283.005,426.899 206.5,411C 169.523,400.493 139.523,379.993 116.5,349.5C 117.5,349.5 118.5,349.5 119.5,349.5C 144.521,381.861 177.188,402.361 217.5,411C 290.888,421.455 348.221,396.288 389.5,335.5 Z"/></g>
<g><path style="opacity:1" fill="#c3a173" d="M 226.5,366.5 C 228.344,368.279 229.01,370.612 228.5,373.5C 229.552,373.351 230.552,373.517 231.5,374C 229.866,374.494 228.199,374.66 226.5,374.5C 226.5,371.833 226.5,369.167 226.5,366.5 Z"/></g>
<g><path style="opacity:1" fill="#c8a576" d="M 282.5,366.5 C 283.376,366.369 284.043,366.702 284.5,367.5C 285.601,369.642 286.601,371.808 287.5,374C 286.17,373.923 284.836,373.423 283.5,372.5C 281.971,372.529 280.804,373.196 280,374.5C 279.933,371.613 280.767,368.946 282.5,366.5 Z"/></g>
<g><path style="opacity:1" fill="#bf9e72" d="M 216.5,366.5 C 218.858,368.168 220.524,370.501 221.5,373.5C 221.167,373.833 220.833,374.167 220.5,374.5C 218.5,371.833 216.5,371.833 214.5,374.5C 214.167,374.167 213.833,373.833 213.5,373.5C 214.702,371.22 215.702,368.886 216.5,366.5 Z"/></g>
<g><path style="opacity:1" fill="#3a3733" d="M 216.5,369.5 C 218.337,369.639 218.67,370.306 217.5,371.5C 216.702,371.043 216.369,370.376 216.5,369.5 Z"/></g>
<g><path style="opacity:1" fill="#3b3834" d="M 282.5,368.5 C 283.267,369.172 283.934,370.005 284.5,371C 282.939,371.188 282.272,370.355 282.5,368.5 Z"/></g>
<g><path style="opacity:1" fill="#c2a173" d="M 257.5,366.5 C 259.288,366.215 260.955,366.548 262.5,367.5C 261.313,367.554 259.98,367.887 258.5,368.5C 262.021,369.15 263.021,370.983 261.5,374C 255.852,374.059 255.519,373.392 260.5,372C 257.965,371.072 256.965,369.238 257.5,366.5 Z"/></g>
<g><path style="opacity:1" fill="#857157" d="M 298.5,367.5 C 297.105,369.693 296.105,372.026 295.5,374.5C 295.5,372.167 295.5,369.833 295.5,367.5C 296.5,367.5 297.5,367.5 298.5,367.5 Z"/></g>
<g><path style="opacity:1" fill="#d6b07c" d="M 298.5,367.5 C 297.5,367.5 296.5,367.5 295.5,367.5C 295.5,369.833 295.5,372.167 295.5,374.5C 295.02,371.834 294.02,369.334 292.5,367C 294.712,366.211 296.712,366.378 298.5,367.5 Z"/></g>
<g><path style="opacity:1" fill="#857157" d="M 274.5,367.5 C 273.105,369.693 272.105,372.026 271.5,374.5C 271.5,372.167 271.5,369.833 271.5,367.5C 272.5,367.5 273.5,367.5 274.5,367.5 Z"/></g>
<g><path style="opacity:1" fill="#d6b07c" d="M 274.5,367.5 C 273.5,367.5 272.5,367.5 271.5,367.5C 271.5,369.833 271.5,372.167 271.5,374.5C 271.02,371.834 270.02,369.334 268.5,367C 270.712,366.211 272.712,366.378 274.5,367.5 Z"/></g>
<g><path style="opacity:1" fill="#d0ab79" d="M 304.5,366.5 C 310.324,366.347 310.657,367.013 305.5,368.5C 310.833,369.833 310.833,371.167 305.5,372.5C 311.959,373.97 311.626,374.637 304.5,374.5C 304.5,371.833 304.5,369.167 304.5,366.5 Z"/></g>
<g><path style="opacity:1" fill="#d0ab79" d="M 245.5,366.5 C 251.324,366.347 251.657,367.013 246.5,368.5C 251.833,369.833 251.833,371.167 246.5,372.5C 252.959,373.97 252.626,374.637 245.5,374.5C 245.5,371.833 245.5,369.167 245.5,366.5 Z"/></g>
<g><path style="opacity:1" fill="#d0ab79" d="M 202.5,366.5 C 208.324,366.347 208.657,367.013 203.5,368.5C 208.833,369.833 208.833,371.167 203.5,372.5C 209.959,373.97 209.626,374.637 202.5,374.5C 202.5,371.833 202.5,369.167 202.5,366.5 Z"/></g>
<g><path style="opacity:1" fill="#ceaa79" d="M 189.5,366.5 C 191.467,366.261 193.301,366.594 195,367.5C 195.215,370.126 195.048,372.459 194.5,374.5C 192.88,371.942 191.38,371.942 190,374.5C 189.503,371.854 189.336,369.187 189.5,366.5 Z"/></g>
<g><path style="opacity:1" fill="#413c36" d="M 190.5,367.5 C 192.346,367.222 193.68,367.889 194.5,369.5C 193.311,370.429 191.978,370.762 190.5,370.5C 190.5,369.5 190.5,368.5 190.5,367.5 Z"/></g>
</svg>
